<svg width="187" height="51" viewBox="0 0 187 51" fill="none" xmlns="http://www.w3.org/2000/svg">
<path d="M63.5803 40.6119C63.5803 33.9722 68.7371 30.6523 76.93 29.4516L89.0074 27.6849C90.7024 27.4729 91.5506 26.6963 91.5506 25.636V25.0715C91.5506 21.187 87.6662 18.2913 82.0853 18.2913C77.5648 18.2913 73.3981 20.058 72.0555 23.8005H65.2052C66.5477 17.8672 72.9038 13.2062 82.2272 13.2062C91.5506 13.2062 98.5428 17.797 98.5428 24.7892V49.5098H92.1152V47.6729C92.1152 46.19 92.3272 44.9893 92.9634 43.5765L93.5279 42.5176L93.3861 42.4474L92.1152 44.2843C89.0074 48.5226 83.074 50.4999 77.2825 50.4999C69.3016 50.4999 63.5803 46.4035 63.5803 40.6119ZM91.6208 37.5041V31.6424L78.5534 33.5495C73.1144 34.3978 70.2888 36.3049 70.2888 40.2595C70.2888 43.5077 73.891 45.7687 78.764 45.7687C85.3321 45.7687 91.6194 42.3084 91.6194 37.5041H91.6208Z" fill="black"/>
<path d="M126.583 50.0776C120.722 50.996 115.495 50.0776 112.951 47.7463C110.902 45.9811 109.985 43.6499 109.985 40.33V19.2817H103.558V14.1966H107.372C109.421 14.1966 110.127 13.2079 110.127 11.4412V5.79015L116.837 4.0249V11.5114C116.837 12.8526 116.131 13.771 115.284 14.0547V14.1966H126.161V19.2817H116.837V39.2697C116.837 44.2144 119.945 45.9095 126.585 45.2031V50.0761L126.583 50.0776Z" fill="black"/>
<path d="M132.798 6.63974V0H139.578V6.63974H132.798ZM132.798 49.4413V14.1263H139.578V49.4413H132.798Z" fill="black"/>
<path d="M148.335 49.5116V0.0703125H155.115V30.5825H155.468L175.033 14.2668H182.873L162.107 31.3591L182.873 49.5116H175.033L155.398 32.2775H155.115V49.5116H148.335Z" fill="black"/>
<path d="M44.6959 50.0602H35.2349C34.8838 50.0602 34.6503 49.6992 34.7936 49.3796L35.1976 48.4784L39.0749 39.8198L39.2812 39.3598C39.3586 39.1865 39.532 39.0747 39.7225 39.0747H40.0908C40.2813 39.0747 40.4533 39.1865 40.5321 39.3598L40.5951 39.4988L44.4724 48.1574L44.8764 49.0587L45.0684 49.4871C45.1888 49.7565 44.9925 50.0602 44.6973 50.0602H44.6959Z" fill="#F24406"/>
<path d="M28.2168 11.8996C28.3515 12.1991 28.3515 12.5415 28.2168 12.841L26.3871 16.9274L25.8111 18.2156L22.7377 25.0774L21.5097 27.8198L21.4682 27.913L20.6472 29.747L17.4821 36.8137L16.5493 38.8985L16.2154 39.6436L12.6419 47.6244L11.9356 49.2034C11.7493 49.6175 11.3381 49.884 10.8839 49.884H1.1535C0.318164 49.884 -0.239208 49.0229 0.101806 48.2606L0.550282 47.2576L4.29427 38.8985L4.83158 37.6992L5.37463 36.4885L9.21461 27.9144L10.1273 25.8769L11.3553 23.1345L14.135 16.9289L14.4287 16.2712L16.6109 11.3981L18.5151 7.14693C18.5151 7.14693 18.5151 7.14693 18.5151 7.1455L18.8046 6.49929V6.49786L19.0524 5.94335L19.7789 4.31995L21.2475 1.0402C21.6545 0.131783 22.944 0.131783 23.3509 1.0402L25.5475 5.94478L28.2154 11.9025L28.2168 11.8996Z" fill="black"/>
<path d="M51.1149 37.6144C51.1636 37.7248 51.1636 37.8494 51.1149 37.9597L50.6951 38.8983L50.3612 39.6433L46.0799 49.2032L45.8865 49.6345C45.8177 49.7863 45.6673 49.8838 45.501 49.8838H45.2274L44.9709 49.3106L44.7789 48.8822L44.3748 47.981L40.4976 39.3224L40.307 38.8983L39.8098 37.7878L36.1289 29.5677L35.8538 28.953L35.3881 27.9127L35.2033 27.4986L34.1186 25.0786L30.9019 17.8944L30.4692 16.9272L28.5048 12.5427C28.4561 12.4324 28.4561 12.3078 28.5048 12.1974L29.8961 9.09105C29.8961 9.09105 29.8961 9.09105 29.8961 9.08962L30.1855 8.44341V8.44198L31.1613 6.26407L31.3046 5.94312L33.7332 0.521285C33.8822 0.188868 34.355 0.188868 34.5041 0.521285L36.9313 5.94169L39.8098 12.3708L41.8516 16.9272L42.2843 17.8944L45.501 25.0786L46.5857 27.5001L46.7705 27.9142L51.1149 37.6144Z" fill="black"/>
<path d="M32.8177 27.5058C32.9481 27.619 32.6873 27.9887 32.6286 28.1678C31.309 31.0478 29.8618 34.3175 28.5264 37.1775C28.449 37.305 28.4003 37.3179 28.3588 37.2362C27.6767 35.7647 24.7624 29.3141 24.076 27.8082C23.8582 27.384 24.3769 27.4113 24.6692 27.4184C26.8099 27.4313 30.3031 27.3812 32.4567 27.4285C32.5699 27.4285 32.749 27.4442 32.8134 27.5015L32.8177 27.5058Z" fill="black"/>
<path d="M183.875 5.60826C185.255 5.60826 186.373 4.49012 186.373 3.11083C186.373 1.73154 185.255 0.613403 183.875 0.613403C182.496 0.613403 181.378 1.73154 181.378 3.11083C181.378 4.49012 182.496 5.60826 183.875 5.60826Z" stroke="black" stroke-width="0.5" stroke-miterlimit="10"/>
<path d="M182.624 1.81128H184.271C184.934 1.81128 185.148 2.11361 185.148 2.51767C185.148 2.85581 184.961 3.06787 184.718 3.14381V3.15098C185.027 3.21689 185.096 3.48626 185.096 3.8545C185.096 3.97772 185.1 4.27002 185.205 4.41187H184.615C184.575 4.33879 184.549 4.20841 184.549 4.01927C184.549 3.64817 184.497 3.38596 184.097 3.38596H183.169V4.4133H182.623V1.81128H182.624ZM184.113 2.97617C184.416 2.97617 184.579 2.88447 184.579 2.59361C184.579 2.32423 184.4 2.2182 184.113 2.2182H183.17V2.97617H184.113Z" fill="black"/>
</svg>
