<svg width="51" height="16" viewBox="0 0 51 16" fill="none" xmlns="http://www.w3.org/2000/svg">
<path d="M35.7186 1.22349C35.7186 1.22349 34.7625 1.60413 33.6504 2.82983C32.5383 4.05553 31.8906 5.43381 32.3699 5.80036C32.554 5.93968 32.9786 5.96622 33.7491 5.26961C34.4601 4.6523 35.0181 3.87847 35.3794 3.00896C35.877 1.7957 35.7186 1.23841 35.7186 1.22515M41.8048 3.42858C40.5692 2.795 39.6661 2.01878 38.7265 1.53862C37.83 1.07836 37.2503 0.885965 36.5255 0.982992C36.4244 1.00102 36.3247 1.02595 36.227 1.05763C36.227 1.05763 36.6002 2.33225 35.1149 4.47349C33.6106 6.64458 32.2455 6.62966 31.8574 6.03339C31.4511 5.40396 31.976 4.12104 32.8526 2.9791C33.7706 1.78492 35.3828 0.794742 35.3828 0.794742C35.3828 0.794742 34.8686 0.48044 33.6064 1.19612C32.3749 1.89107 30.2552 3.54966 28.2882 6.34687C26.3211 9.14407 25.9313 10.6832 25.6493 11.8948C25.3674 13.1064 25.6236 14.4043 26.9671 14.4043C28.3105 14.4043 29.8746 12.3551 30.3158 11.6427C31.136 10.3159 31.6708 8.28078 30.5546 8.56025C30.0048 8.69791 29.5595 9.30662 29.2783 9.89293C29.1008 10.2695 28.9651 10.6644 28.8736 11.0705C28.4836 11.2313 28.1173 11.4444 27.7848 11.7041C27.4149 11.9781 27.0692 12.2833 26.7515 12.6163C26.7515 12.6163 26.7564 11.6477 27.5285 10.0803C28.3006 8.51298 29.7179 7.7973 30.5206 7.73013C31.2438 7.67208 32.185 8.28576 31.3872 10.5497C30.5894 12.8137 28.2359 15.5661 25.7638 15.6001C23.4824 15.6316 21.9897 12.72 25.165 7.63891C28.6796 2.02541 32.802 0.302971 34.1405 0.111404C35.479 -0.0801629 35.9143 0.510294 35.9143 0.510294C36.7201 0.179742 37.5903 0.0362679 38.4594 0.0906716C40.094 0.200968 41.3578 1.35783 43.0264 2.17054C42.5927 2.58519 42.1788 3.02057 41.8056 3.42858M49.1482 1.53862C48.0154 2.26508 46.448 2.92354 44.942 2.78256C44.5606 3.17648 44.1526 3.63259 43.7437 4.13016C46.3552 4.64681 48.6432 3.02886 49.8598 1.6514C50.3033 1.15616 50.6843 0.608315 50.9942 0.0201817C50.4404 0.597077 49.8205 1.10673 49.1474 1.53862M45.6702 8.89612C45.6899 8.86168 45.7061 8.82527 45.7183 8.78748C45.7105 8.72767 45.6825 8.67234 45.6389 8.63069C45.5953 8.58904 45.5387 8.56359 45.4786 8.55859C45.2298 8.54698 44.8906 8.59425 44.0008 9.57945C43.2626 10.393 42.6273 11.2943 42.1092 12.2631C41.6 13.1935 41.3935 13.8868 41.6862 14.0659C41.7813 14.1152 41.8916 14.1265 41.9947 14.0974C42.1929 14.0502 42.4177 13.8644 42.7593 13.4688C42.9194 13.2831 43.0969 13.0202 43.3092 12.7291C43.898 11.928 45.3774 9.40613 45.6702 8.89612ZM36.4268 9.96756C36.5753 9.57945 36.7644 8.81733 36.3713 8.51796C35.9492 8.20034 34.8727 8.94587 34.8669 9.71048C34.8595 10.4933 35.6249 10.8474 35.8082 10.8972C35.9127 10.9254 35.9492 10.9213 35.9998 10.8375C36.1621 10.5578 36.3048 10.2671 36.4268 9.96756ZM35.6125 11.3915C35.3457 11.2683 35.0969 11.1096 34.8727 10.9196C34.648 10.7311 34.4602 10.5024 34.3188 10.2454C34.3039 10.2205 34.2889 10.2396 34.2723 10.262C34.2558 10.2844 34.1894 10.3449 33.6155 11.1858C33.0417 12.0267 32.1601 13.769 32.9579 14.0659C33.4688 14.2558 34.3188 13.361 34.7824 12.7681C35.0982 12.3542 35.3845 11.9186 35.639 11.4644C35.6631 11.4139 35.639 11.4022 35.6133 11.3915M44.6626 13.4042C44.4461 13.7508 44.199 14.4159 44.9114 14.0021C45.7829 13.4987 47.0244 11.6154 47.0244 11.6154H47.5875C47.0751 12.4032 46.5046 13.1516 45.8808 13.8545C44.9976 14.833 43.9204 15.722 43.1615 15.6341C42.275 15.5305 42.5528 14.367 42.5528 14.367C42.5528 14.367 41.2849 15.7171 40.4075 15.62C39.2224 15.489 39.584 14.0245 39.584 14.0245C39.584 14.0245 38.2438 15.669 37.3308 15.6184C35.8994 15.5354 36.2593 13.7939 36.6574 12.5674C36.8705 11.9114 37.0679 11.3964 37.0679 11.3964C37.0679 11.3964 36.9261 11.4338 36.6209 11.4794C36.4617 11.5018 36.1714 11.5183 36.1714 11.5183C36.1714 11.5183 35.5752 12.5699 35.0983 13.2018C34.6215 13.8337 32.5947 16.0123 31.4022 15.5761C30.2992 15.173 30.6641 13.4846 31.306 12.1428C32.2431 10.1865 34.8786 7.37602 36.3987 7.74754C37.9743 8.12985 36.4343 11.005 36.4343 11.005C36.4343 11.005 36.4343 11.0158 36.4509 11.0233C36.4824 11.0349 36.5645 11.044 36.7544 11.0067C36.9512 10.9665 37.1441 10.9091 37.3308 10.835C37.3308 10.835 38.9147 7.51783 40.6645 5.34757C42.4143 3.1773 45.9048 -0.560324 47.2748 0.343606C47.6066 0.565857 47.4573 1.3313 47.0062 2.2601C46.803 2.32611 46.5965 2.38147 46.3875 2.42596C46.6894 1.8778 46.8892 1.41588 46.9489 1.09329C47.1554 -0.0279175 44.5373 2.33723 42.6665 4.87819C41.5395 6.41002 40.5383 8.03049 39.6727 9.72375C40.0107 9.51763 40.3333 9.28731 40.638 9.03461C41.4725 8.34266 42.2656 7.6022 43.0131 6.81708C43.7329 6.08016 44.4081 5.30089 45.0349 4.48344C45.2341 4.47381 45.4326 4.45332 45.6295 4.42207C44.946 5.34974 44.2007 6.23024 43.3987 7.05757C42.6524 7.81223 41.8446 8.62411 41.143 9.21374C40.5164 9.74664 39.8554 10.2378 39.1643 10.6841C39.1643 10.6841 37.5281 13.9838 38.418 14.1953C38.9413 14.3214 39.9746 12.7299 39.9746 12.7299C39.9746 12.7299 41.323 10.6725 42.1357 9.74448C43.2445 8.48396 44.199 7.75418 45.1527 7.74091C45.7083 7.73096 46.0359 8.32142 46.0359 8.32142L46.2971 7.91672H47.9059C47.9059 7.91672 44.9014 13.0152 44.6609 13.3992M49.1474 1.53862C48.0146 2.26508 46.4472 2.92354 44.9412 2.78256C44.5597 3.17648 44.1517 3.63259 43.7429 4.13016C46.3543 4.64681 48.6424 3.02886 49.8589 1.6514C50.3027 1.1562 50.684 0.60836 50.9942 0.0201817C50.4404 0.597077 49.8205 1.10673 49.1474 1.53862ZM26.5533 4.03977H25.0232L24.1583 5.43713H25.6883L26.5533 4.03977ZM19.3086 8.8787C19.9596 7.98638 21.7558 4.85911 21.7558 4.85911C21.7482 4.79938 21.7204 4.74406 21.6769 4.70239C21.6334 4.66073 21.577 4.63526 21.517 4.63023C21.2682 4.61862 20.8535 4.70238 20.03 5.73319C19.2066 6.764 18.5672 7.58417 18.1011 8.43752C17.5903 9.36881 17.3672 10.0256 17.6608 10.2039C17.756 10.2516 17.8655 10.2629 17.9684 10.2354C18.1592 10.1873 18.4088 9.99576 18.7513 9.60185C18.9122 9.41774 19.0946 9.16978 19.3086 8.8787ZM11.0986 4.6493C10.6756 4.33002 9.60002 5.07722 9.59421 5.84017C9.58758 6.62385 10.562 6.86352 10.6881 6.86932C10.7251 6.8724 10.7623 6.86462 10.795 6.84693C10.8175 6.83381 10.8355 6.81414 10.8464 6.79054C10.961 6.56541 11.064 6.33456 11.1549 6.09891C11.3034 5.7108 11.4916 4.94868 11.0986 4.6493ZM10.4608 7.34699C10.1692 7.25589 9.89048 7.12768 9.63153 6.96552C9.3806 6.80193 9.17654 6.57587 9.03941 6.30955C9.02449 6.28467 9.0079 6.30374 8.99297 6.32613C8.97804 6.34852 8.8918 6.45633 8.31627 7.30055C7.74074 8.14478 6.88822 9.87137 7.68683 10.1683C8.19602 10.3615 9.056 9.45921 9.52289 8.86875C9.87228 8.40474 10.1951 7.92131 10.4898 7.4208C10.5089 7.37022 10.4898 7.3586 10.4617 7.34948M22.9575 7.86696H23.5181C23.5181 7.86696 20.7092 11.9305 19.1228 11.7414C18.2371 11.6378 18.5 10.5448 18.5 10.5448C18.5 10.5448 17.2561 12.001 16.1133 11.7058C15.0767 11.4396 15.7459 9.71546 15.7459 9.71546C15.6282 9.76273 13.3849 12.2912 11.8084 11.685C10.159 11.0481 11.0156 8.93095 11.3291 8.29405C11.5953 7.7575 11.8897 7.23504 11.8897 7.23504C11.8897 7.23504 11.6368 7.30636 11.475 7.34285C11.3133 7.37934 11.0795 7.42578 11.0795 7.42578C11.0795 7.42578 10.2991 8.69377 9.82227 9.32652C9.34542 9.95927 7.31863 12.1337 6.12444 11.7008C4.93026 11.2679 5.22632 9.59687 5.89722 8.27C6.98525 6.11798 9.56684 3.47336 11.1218 3.87474C12.6925 4.27529 11.3921 6.82288 11.3921 6.82288C11.3921 6.82288 11.7048 6.86352 12.4536 6.35267C13.5317 5.61709 14.9548 3.63839 16.4956 3.87059C17.2221 3.98006 17.8988 4.72228 16.9733 6.13208C16.678 6.58487 16.183 6.98957 15.804 6.58902C15.5676 6.34023 15.7741 5.88661 16.0221 5.57645C16.1186 5.45002 16.2447 5.34925 16.3893 5.28302C16.5339 5.21679 16.6926 5.18712 16.8514 5.19664C16.8514 5.19664 17.106 4.61613 16.4583 4.62442C15.9342 4.63437 14.6073 5.85592 13.8584 7.08991C13.1718 8.22273 12.131 10.1525 13.1759 10.5729C14.1338 10.9594 15.9566 8.79577 16.8008 7.66213C17.645 6.52848 19.569 3.95933 21.1828 3.8565C21.7384 3.82001 22.0693 4.32671 22.0693 4.32671L22.2559 4.03148H23.8697C23.8697 4.03148 20.8303 9.10344 20.5931 9.4874C20.4065 9.78761 20.1586 10.4627 20.8419 10.0845C21.5253 9.70634 22.9575 7.86696 22.9575 7.86696ZM22.0792 15.994C20.891 15.1715 19.4681 14.7563 18.024 14.8106C17.6331 14.8213 17.2502 14.9239 16.9065 15.1102C16.5627 15.2966 16.2676 15.5613 16.0453 15.8829C15.43 14.809 14.2134 14.1497 12.3325 14.1646C9.29318 14.1995 6.27869 15.601 3.89033 15.5993C1.60147 15.5993 -0.0678941 14.1605 -0.0139899 11.6054C0.0863546 7.12143 3.8754 3.08359 6.70329 1.26661C8.33368 0.222529 9.69704 -0.0876266 10.5885 0.012718C11.2387 0.0848666 12.0207 0.836207 11.5273 1.94331C10.8025 3.56127 9.80153 3.42858 9.83885 2.65485C9.85958 2.15147 10.1946 1.83468 10.4467 1.6597C10.6068 1.5494 10.8896 1.51789 11.0372 1.51457C11.1807 1.39349 11.286 0.507807 10.125 0.798889C8.96395 1.08997 7.55415 2.2344 6.21567 3.71303C4.87719 5.19166 2.79317 7.98638 2.27818 10.9213C2.03768 12.2821 2.19525 14.7642 5.42203 14.736C8.1587 14.7136 12.1924 12.9116 15.8993 12.9489C17.3382 12.963 18.5904 13.3511 19.5665 13.9532C20.5251 14.5436 21.6745 15.4061 22.0825 15.9949" fill="black"/>
</svg>
