<svg width="833" height="185" viewBox="0 0 833 185" fill="none" xmlns="http://www.w3.org/2000/svg">
<path d="M319.162 22L265.089 161.432H300.96L355.02 22H319.163H319.162Z" fill="black"/>
<path d="M213.931 38.4851C177.606 38.4851 137.641 60.2215 130.32 96.853C122.519 136.018 157.31 144.406 179.687 144.686C230 145.299 260.684 115.175 267.685 84.4775C274.393 55.0202 248.349 38.4851 213.931 38.4851ZM189.115 127.163C180.447 127.163 174.259 124.977 170.539 120.71C166.538 116.056 165.565 108.894 167.498 99.2793C171.019 81.877 186.154 56.0069 213.211 56.0069C219.745 56.0069 224.626 57.874 227.706 61.4878C231.334 65.7017 232.4 72.2361 230.867 80.0238C221.719 124.883 194.502 127.163 189.115 127.163ZM517.198 41.8188C530.4 39.7519 542.802 37.4848 566.898 37.4848C605.543 37.4848 629.307 50.2598 618.198 79.157C613.398 91.612 608.437 104.64 604.25 115.668C598.329 131.017 599.623 136.885 600.836 142.365C600.836 142.365 591.808 139.005 572.859 139.565C555.897 140.005 548.563 144.366 520.759 144.366C490.715 144.366 479.687 129.47 480.887 113.721C481.9 99.9061 489.581 87.891 506.824 81.0501C518.159 76.5162 529.52 74.9964 541.322 74.0896C559.417 72.6494 575.606 73.4228 584.314 74.0896C585.928 68.9155 588.155 58.3808 562.711 58.2208C535.468 58.0074 516.772 62.7816 508.184 65.4353L517.198 41.8188ZM545.402 93.3988C526.426 95.399 519.332 100.293 517.758 109.441C516.438 116.775 521.172 123.549 538.895 122.789C549.136 122.336 560.417 119.829 568.312 115.868L577.086 92.9324C563.885 92.1323 554.977 92.412 545.402 93.3988ZM471.166 43.5655C452.736 43.5655 451.91 38.5249 421.852 38.5249C378.74 38.5249 343.322 70.2627 338.241 105.294C336.681 116.336 339.761 126.203 346.162 133.137C352.71 140.391 362.671 143.153 374.486 143.699C391.968 144.473 407.957 140.992 423.293 130.964C414.291 157.581 383.754 163.141 363.151 162.968C353.15 162.901 342.175 162.474 333.481 158.314L324.546 180.984C333.481 183.357 346.909 184.904 357.697 184.904C408.077 184.904 440.521 166.902 453.99 131.457L488.395 40.7917C488.395 40.7917 478.18 43.5655 471.166 43.5655ZM391.968 124.563C370.992 124.563 372.899 104.174 380.3 88.2516C389.715 67.9156 408.771 58.5672 420.946 58.1272C429.96 57.7804 437.508 59.1408 443.562 64.9282C429.333 120.202 400.529 124.563 391.968 124.563ZM117.999 113.068C111.331 116.215 95.5688 120.936 83.0072 120.936C49.216 120.936 38.8413 100.4 42.4284 80.3437C48.3759 47.3526 80.2068 22.3094 117.865 22.3094C129.533 22.3094 139.975 24.5232 149.176 28.3104L160.271 6.84103C151.003 2.64047 137.814 0.000108394 125.506 0.000108394C65.2715 0.000108394 8.94396 34.3774 0.916219 80.2102C-6.16472 120.669 28.7866 143.179 71.5923 143.179C83.1138 143.179 95.8622 141.352 106.464 138.885L117.999 113.068ZM694.515 37.7249L702.076 17.4552L663.898 24.03L658.671 37.7379H641.828L635.694 54.4605H652.483L632.347 104.173C627.2 116.748 626.973 126.043 631.547 132.337C636.081 138.578 645.042 141.578 658.857 141.578C666.592 141.578 677.18 140.018 685.394 137.898L693.569 118.282C688.901 120.149 681.474 122.096 675.393 122.256C671.099 122.443 668.592 121.523 666.992 119.442C664.711 116.429 665.378 110.455 668.592 102.28L688.088 54.4605H713.158L719.639 37.7379L694.515 37.7249ZM811.344 119.175C801.343 124.043 783.954 126.684 772.366 126.684C762.258 126.684 753.99 123.323 749.069 117.215C744.669 111.575 743.535 104.173 745.709 96.0521H828.066L828.493 94.9859C834.921 77.0368 834.107 61.4613 826.173 51.1666C818.932 41.6987 806.344 36.8711 788.821 36.8711C749.816 36.8711 716.638 58.6072 708.037 89.7313C703.677 105.467 705.904 119.229 714.465 129.577C723.906 141.045 740.575 147.326 761.271 147.326C773.219 147.326 787.674 145.192 800.636 141.298L811.344 119.175ZM783.954 55.0473C790.528 55.0473 795.075 56.7275 797.596 59.9812C800.57 63.8884 800.716 70.2488 797.996 78.3032H751.15C754.777 67.195 765.218 55.0473 783.981 55.0473" fill="black"/>
</svg>
