<svg width="43" height="16" viewBox="0 0 43 16" fill="none" xmlns="http://www.w3.org/2000/svg">
<path d="M2.15852 1.60399C3.66485 0.521939 5.54161 0.0994188 7.36804 0.0174897C9.47713 -0.0860921 11.6728 0.27264 13.4905 1.39682C15.0407 2.34077 16.2404 3.85645 16.7565 5.60037C17.2393 7.18453 17.1644 8.92201 16.5909 10.4728C16.0192 12.0435 14.8967 13.407 13.4542 14.255C11.6728 15.323 9.58832 15.7555 7.53658 15.8924C6.7208 15.9387 5.90268 15.9685 5.08573 15.9363C3.85679 15.9346 2.62727 15.9117 1.40068 15.838C1.23097 15.8175 1.01971 15.8357 0.902665 15.6858C0.788549 15.5161 0.908517 15.2949 1.07296 15.2112C1.68392 14.8771 2.17842 14.3644 2.57694 13.7997C3.18029 12.9424 3.61218 11.9803 3.99841 11.0106C4.76094 9.10635 5.33386 7.12543 6.23098 5.27617C6.60435 4.52944 7.03213 3.79969 7.60095 3.18346C8.22713 2.49058 9.09031 2.02007 10.0067 1.84802C10.2198 1.8211 10.5077 1.73332 10.6411 1.96448C10.5609 2.16696 10.3719 2.28341 10.2127 2.41684C9.59242 2.92129 9.16405 3.61476 8.79654 4.31467C8.28389 5.31538 7.88829 6.36992 7.49913 7.4233C6.98883 8.81902 6.49959 10.2229 5.96179 11.6093C5.48894 12.7902 4.81829 13.9384 3.79944 14.729C3.73507 14.7864 3.64144 14.8484 3.66719 14.9497C3.6707 15.069 3.81641 15.1012 3.91239 15.1123C4.53447 15.1767 5.16064 15.2101 5.78623 15.2042C7.1205 15.2159 8.46765 15.1176 9.75862 14.7618C11.2831 14.3387 12.7057 13.4463 13.6309 12.1477C14.5778 10.8327 14.998 9.1877 14.9617 7.57955C14.9518 5.90234 14.4877 4.15959 13.3559 2.88325C12.3587 1.73742 10.8974 1.08901 9.41686 0.860189C8.19787 0.659463 6.94377 0.704524 5.73531 0.951482C4.2957 1.24643 2.88184 1.94107 1.97242 3.12553C1.04194 4.2977 0.714813 5.91404 1.09929 7.35775C1.16542 7.61349 0.768067 7.72643 0.629958 7.53624C0.0248527 6.72807 -0.0734622 5.66006 0.0424089 4.68628C0.296389 3.4275 1.12855 2.34194 2.15852 1.60399Z" fill="black"/>
<path d="M22.5554 5.93151C23.5432 5.78755 24.6376 5.85427 25.475 6.45293C26.2282 6.98547 26.6091 7.90717 26.6794 8.80488C26.787 10.2773 26.3317 11.7573 25.5359 12.9885C24.6762 14.3111 23.37 15.3809 21.8338 15.7993C20.8922 16.0451 19.8611 16.0936 18.9412 15.7373C18.2038 15.4569 17.6157 14.8372 17.3453 14.0993C17.01 13.1992 17.0422 12.202 17.2435 11.275C17.6244 9.5996 18.6041 8.05874 19.9822 7.02819C20.7366 6.46639 21.6226 6.07372 22.5554 5.93151ZM22.8416 6.62498C22.0469 6.85029 21.3973 7.41209 20.8641 8.02305C19.7312 9.36083 19.0559 11.096 19.0453 12.8539C19.0617 13.4772 19.1284 14.1361 19.4749 14.6722C19.7113 15.0479 20.1414 15.2925 20.5862 15.2931C21.3967 15.3177 22.1463 14.8741 22.6964 14.3093C23.442 13.5708 23.9488 12.6257 24.3145 11.6507C24.7125 10.5424 24.9483 9.34386 24.7845 8.16642C24.7055 7.66431 24.5357 7.12826 24.1202 6.80347C23.7627 6.51965 23.2653 6.50677 22.8416 6.62498Z" fill="black"/>
<path d="M37.5566 6.86335C38.5684 6.18451 39.7956 5.77955 41.0222 5.88605C41.5805 5.9276 42.1774 6.07449 42.5736 6.49701C42.9405 6.88969 43.0154 7.47255 42.9147 7.98227C42.7778 8.61488 42.3565 9.14391 41.8725 9.55472C41.1334 10.175 40.2403 10.58 39.3309 10.8831C38.3343 11.2114 37.2991 11.4122 36.2592 11.5392C36.0971 12.2549 36.0081 13.0028 36.1246 13.7325C36.2007 14.2106 36.44 14.6999 36.8865 14.9299C37.415 15.1961 38.0411 15.147 38.5982 15.0048C39.6651 14.7098 40.5335 13.9502 41.22 13.1087C41.3493 12.9647 41.4465 12.7359 41.6694 12.7301C41.8263 12.7236 41.9357 12.8465 41.9995 12.9758C41.9175 13.2626 41.7197 13.492 41.5471 13.7273C40.8279 14.6548 39.8576 15.4144 38.7317 15.7737C37.9563 16.0201 37.1142 16.0693 36.3171 15.9042C35.5996 15.7568 34.929 15.3184 34.582 14.6624C34.1191 13.808 34.1419 12.7886 34.2899 11.8546C34.6458 9.84206 35.8636 8.00217 37.5566 6.86335ZM39.7494 6.66145C39.0413 6.9207 38.4631 7.4351 37.9697 7.99163C37.2569 8.82614 36.7273 9.81924 36.4429 10.8802C37.2657 10.779 38.0798 10.5847 38.8464 10.2669C39.5358 9.97549 40.2017 9.58281 40.7032 9.01809C41.0936 8.57918 41.3628 8.00509 41.3353 7.40818C41.3218 7.12084 41.2048 6.80893 40.9362 6.67023C40.5692 6.4777 40.1268 6.52861 39.7494 6.66145Z" fill="black"/>
<path d="M33.803 6.15916C34.0517 5.97073 34.3847 5.85661 34.6908 5.96663C34.9173 6.04388 35.0524 6.28206 35.0606 6.51321C35.0759 6.92227 34.9822 7.32548 34.8775 7.71757C34.6317 8.59129 34.2525 9.42053 33.8346 10.2234C33.2207 11.3804 32.4816 12.4712 31.6243 13.4614C30.9677 14.2099 30.2596 14.9256 29.4327 15.485C29.1272 15.6811 28.8036 15.8719 28.4425 15.9397C28.2084 15.9743 27.9112 15.9632 27.7736 15.7367C27.5969 15.4095 27.6507 15.0198 27.6501 14.6622C27.7526 13.239 27.9094 11.8175 27.9088 10.3885C27.9112 9.48314 27.8819 8.56905 27.6812 7.68304C27.5618 7.19147 27.381 6.67064 26.9625 6.35345C26.842 6.29727 26.863 6.11059 26.9982 6.09421C27.409 5.98419 27.8538 6.0351 28.2494 6.18257C28.8288 6.40319 29.2665 6.91701 29.4573 7.49929C29.6451 8.07162 29.6855 8.67907 29.7159 9.27715C29.7686 10.7624 29.6662 12.2477 29.541 13.7277C29.5328 13.8693 29.5187 14.0267 29.5971 14.1537C29.8517 14.2397 30.0811 14.0068 30.266 13.8599C31.6255 12.5508 32.6654 10.9181 33.322 9.15133C33.5812 8.44089 33.772 7.70294 33.8621 6.95154C33.8943 6.68644 33.8867 6.41431 33.803 6.15916Z" fill="black"/>
</svg>
