<svg width="25" height="16" viewBox="0 0 25 16" fill="none" xmlns="http://www.w3.org/2000/svg">
<path d="M17.1697 11.2627C17.2434 11.2371 17.3074 11.2851 17.3138 11.3716C17.317 11.458 17.2626 11.5508 17.1889 11.5796C17.1153 11.6052 17.0513 11.5572 17.0449 11.4676C17.0385 11.3812 17.0961 11.2915 17.1697 11.2627Z" fill="black"/>
<path d="M15.5983 10.7666L15.6111 11.0355C15.5695 11.0162 15.5023 11.0226 15.4383 11.0419L15.2079 11.1187C15.2079 11.1539 15.2207 11.4259 15.2271 11.4611C15.3039 11.4323 15.3359 11.4227 15.3903 11.4003C15.4255 11.3875 15.4927 11.3427 15.5087 11.3139L15.5247 11.6308C15.4991 11.6212 15.4607 11.5988 15.3967 11.618C15.3455 11.6308 15.3135 11.6436 15.2367 11.6692L15.2559 12.0148L15.5247 11.922C15.6047 11.8836 15.6591 11.8292 15.6815 11.8036L15.6944 12.0884L14.9422 12.3605C14.9614 12.3157 14.9838 12.2389 14.9774 12.1141C14.9774 12.1141 14.9518 11.4899 14.9294 11.1923C14.923 11.1219 14.9038 11.0547 14.875 11.0226L15.5983 10.7666Z" fill="black"/>
<path d="M15.8032 11.7685C15.848 11.8101 15.9888 11.8261 16.0656 11.8005C16.1232 11.7781 16.1552 11.7301 16.1552 11.6917C16.152 11.6277 16.1136 11.5925 15.992 11.5669C15.8608 11.5413 15.7807 11.4869 15.7743 11.3556C15.7647 11.1572 15.9216 11.0228 16.1136 10.9716C16.1776 10.9556 16.2672 10.9556 16.3152 10.9556L16.3248 11.1668C16.2832 11.1444 16.1872 11.1348 16.1264 11.1572C16.0624 11.1796 16.0304 11.2244 16.04 11.2724C16.0496 11.3172 16.1168 11.3364 16.2512 11.3716C16.3569 11.4004 16.4017 11.4645 16.4081 11.5637C16.4177 11.7685 16.28 11.9061 16.0784 11.9766C16.008 12.0022 15.8512 12.0214 15.816 12.0182L15.8032 11.7685Z" fill="black"/>
<path d="M16.7697 10.5874C16.7697 10.645 16.7665 10.6354 16.7729 10.7538L16.8273 10.7314C16.8945 10.7026 16.9393 10.6674 16.9393 10.6674L16.9457 10.8755L16.7793 10.9331L16.8049 11.3876C16.8113 11.4868 16.8721 11.5124 16.9425 11.4964L16.9489 11.634C16.8977 11.6724 16.8337 11.7108 16.7793 11.73C16.7088 11.7556 16.6512 11.746 16.6032 11.7012C16.568 11.666 16.552 11.5924 16.5456 11.4996L16.52 11.0291L16.4048 11.0675L16.5648 10.677L16.7697 10.5874Z" fill="black"/>
<path d="M17.8963 11.3078L17.5026 11.4454C17.5026 11.4454 17.557 11.3366 17.5506 11.215L17.5154 10.5557C17.509 10.418 17.4258 10.3892 17.397 10.3668C17.4098 10.3636 17.7522 10.0596 17.7522 10.0596L17.8066 11.1254C17.8163 11.2662 17.8963 11.3078 17.8963 11.3078Z" fill="black"/>
<path d="M18.9909 10.2033C18.9333 10.152 18.9013 10.1008 18.8981 10.0176C18.8885 9.85439 19.0069 9.64315 19.2566 9.55033C19.4518 9.47992 19.6118 9.53753 19.6214 9.73277C19.6278 9.84799 19.5382 9.96001 19.4646 10.04C19.4646 10.04 19.5158 10.0528 19.5446 10.072C19.631 10.1232 19.6822 10.1905 19.6886 10.3025C19.695 10.4657 19.5798 10.7314 19.2982 10.8306C19.0805 10.9106 18.8917 10.8338 18.8821 10.6289C18.8757 10.4849 18.9877 10.3153 19.0709 10.2449C19.0677 10.2481 19.0293 10.2321 18.9909 10.2033ZM19.1253 10.5713C19.1317 10.6705 19.2086 10.7025 19.2854 10.6737C19.3654 10.6449 19.4262 10.5617 19.423 10.4817C19.4198 10.3889 19.3558 10.3537 19.2406 10.3121C19.1541 10.4081 19.1221 10.5041 19.1253 10.5713ZM19.3814 9.78398C19.3782 9.70076 19.3174 9.67196 19.2598 9.69436C19.1894 9.71996 19.1477 9.78398 19.1509 9.85759C19.1541 9.9312 19.2278 9.97601 19.2982 9.99522C19.3622 9.9088 19.3846 9.83839 19.3814 9.78398Z" fill="black"/>
<path d="M18.0659 10.5333C18.0083 10.4821 17.9763 10.4309 17.9731 10.3477C17.9635 10.1845 18.0819 9.97323 18.3315 9.88041C18.5268 9.81 18.6836 9.86761 18.6932 10.0628C18.6996 10.1781 18.61 10.2901 18.5364 10.3701C18.5364 10.3701 18.5908 10.3829 18.6164 10.4021C18.7028 10.4533 18.754 10.5205 18.7604 10.6326C18.77 10.7958 18.6516 11.0614 18.3731 11.1606C18.1555 11.2375 17.9667 11.1638 17.957 10.959C17.9506 10.815 18.0627 10.6454 18.1459 10.5749C18.1427 10.5781 18.1043 10.5653 18.0659 10.5333ZM18.2003 10.9014C18.2067 10.9974 18.2835 11.0326 18.3603 11.0038C18.4403 10.975 18.5012 10.8918 18.4947 10.8118C18.4883 10.719 18.4275 10.6838 18.3123 10.6422C18.2323 10.7382 18.1971 10.8342 18.2003 10.9014ZM18.4563 10.1173C18.4531 10.034 18.3923 10.0052 18.3347 10.0276C18.2643 10.0532 18.2227 10.1173 18.2259 10.1909C18.2291 10.2645 18.3027 10.3093 18.3731 10.3285C18.4371 10.2421 18.4595 10.1685 18.4563 10.1173Z" fill="black"/>
<path d="M19.8262 10.2994C19.8934 10.3538 19.9927 10.3794 20.0983 10.3442C20.2103 10.3058 20.2839 10.1874 20.2743 10.0498C20.2679 9.92173 20.1943 9.88012 20.1015 9.91533C20.0215 9.94413 19.9735 10.0242 19.9542 10.0562L19.8358 10.0209L19.8198 9.37123L20.2999 9.1984C20.3671 9.17279 20.4183 9.14719 20.4471 9.12158L20.4535 9.39683L20.0215 9.55046L20.0279 9.79691C20.0695 9.7553 20.1399 9.70729 20.2167 9.67849C20.4503 9.59527 20.5624 9.7521 20.572 9.92493C20.5848 10.1906 20.3831 10.437 20.1431 10.5234C20.0183 10.5683 19.9158 10.5586 19.839 10.5458L19.8262 10.2994Z" fill="black"/>
<path d="M2.9719 6.1516L3.32717 12.9401C3.35597 13.5034 3.30156 14.0027 3.03591 14.5756C3.22155 14.5084 5.03949 13.865 5.47477 13.7018C5.15471 13.4106 5.0939 12.9913 5.07789 12.6648L4.91786 9.60504C5.47477 9.53783 6.33893 9.16976 6.85742 8.8145C8.3361 7.79991 8.73297 6.6637 8.62735 5.45067C8.50573 4.0104 7.44313 2.79738 5.77242 2.88699C5.26673 2.9158 4.70662 3.05662 4.09211 3.31587C2.00852 4.19924 0.0721619 6.39805 0.00174882 9.17616C-0.0398589 10.8085 0.664272 12.4952 1.76208 13.3529C2.09174 13.609 2.36059 13.7178 2.4534 13.7434C0.933122 12.4792 0.725083 10.5076 0.846706 9.40021C1.13796 6.6733 3.12873 5.01539 4.47298 4.59611C5.72761 4.20564 6.86703 4.60891 6.94064 6.00117C7.01105 7.36143 6.23011 8.23519 5.47157 8.59045C5.26033 8.68967 5.03949 8.75688 4.87626 8.77929L4.67782 4.99939C4.06971 5.21383 3.20234 5.85074 2.9719 6.1516Z" fill="black"/>
<path d="M16.3377 7.62369C16.3601 8.7951 17.1506 9.60165 18.258 9.2848C18.9942 9.07676 19.6983 8.33422 19.9575 7.77091C19.9767 8.13258 19.8679 8.42703 19.7687 8.61907C19.8935 8.57426 21.0489 8.15178 21.2282 8.08777C21.0553 7.87013 21.0137 7.54367 20.9977 7.22041C20.9913 7.11159 20.9625 6.6155 20.9369 6.06179C20.9401 5.48889 21.1258 5.16563 21.2922 5.05681C21.481 4.93519 21.7531 4.97999 21.8139 5.22324C21.8523 5.37367 21.8043 5.5753 21.6347 5.69373C22.182 5.84095 22.7453 5.45688 22.6908 4.74635C22.6428 4.10623 22.0891 3.84698 21.6411 3.98461C21.2986 4.09023 20.9881 4.40069 20.8761 4.83917C20.8633 4.52871 20.8505 4.32067 20.8505 4.32067L19.5223 4.80716C19.6471 4.90318 19.7559 5.09521 19.7751 5.40887L19.8487 6.82354C19.6759 7.50526 19.0422 8.26701 18.5077 8.38863C17.9924 8.50385 17.6499 8.29581 17.4835 7.90214C17.8419 7.94054 18.1236 7.90534 18.4084 7.79012C18.9654 7.56928 19.439 6.93236 19.3654 6.16101C19.2918 5.40567 18.6421 5.04721 17.8964 5.28405C16.8466 5.62651 16.3185 6.58989 16.3377 7.62369ZM17.8739 5.96258C18.2292 5.89216 18.3316 6.23463 18.3348 6.45867C18.338 6.77233 18.2132 7.10839 17.8707 7.29402C17.7107 7.38044 17.5283 7.39644 17.3779 7.39004C17.2722 6.49067 17.5955 6.01379 17.8739 5.96258Z" fill="black"/>
<path d="M11.4983 11.5767C12.2537 11.0774 12.6249 10.05 12.5737 9.05143C12.5097 7.86721 11.7576 7.56635 11.2231 7.74558C10.887 7.86081 10.5734 8.01443 10.3589 8.41451L10.3429 8.08805L8.98266 8.58414C9.10748 8.68016 9.2163 8.87219 9.23231 9.18585C9.23871 9.30107 9.27391 9.9892 9.30912 10.7541C9.12349 11.4103 8.46416 12.0568 7.94567 12.172C7.43037 12.2872 7.08791 12.0792 6.92148 11.6855C7.27994 11.7239 7.5616 11.6855 7.84645 11.5735C8.40335 11.3527 8.87704 10.7157 8.80343 9.94439C8.72981 9.18905 8.08009 8.83059 7.33435 9.06743C6.27496 9.40349 5.74366 10.3669 5.76606 11.4039C5.78847 12.5785 6.57901 13.3786 7.68642 13.065C8.41295 12.8601 9.13949 12.2424 9.35713 11.7399C9.42754 13.113 9.43714 13.2986 9.43714 13.321C9.44995 13.5355 9.41154 14.0988 9.27391 14.374L10.8262 13.8075C10.6566 13.5515 10.6086 13.2378 10.5926 12.9401L10.5413 11.9256C10.8678 11.8648 11.2359 11.7495 11.4983 11.5767ZM7.30555 9.74276C7.66081 9.67234 7.76323 10.0148 7.76643 10.2388C7.76963 10.5525 7.64481 10.8886 7.30235 11.0742C7.14232 11.1606 6.95988 11.1766 6.80946 11.1702C6.70704 10.2741 7.0303 9.79717 7.30555 9.74276ZM10.8646 8.78898C11.2199 8.73137 11.4183 9.02902 11.4407 9.4643C11.4695 10.0244 11.3383 10.6133 10.999 10.9654C10.8774 11.0934 10.6758 11.1958 10.5093 11.2406L10.3973 9.09303C10.5478 8.94581 10.679 8.82098 10.8646 8.78898Z" fill="black"/>
<path d="M15.0733 10.2804C15.8255 9.78107 16.2127 8.83049 16.1519 7.8031C16.0783 6.55487 15.3742 6.27322 14.8013 6.46205C14.3852 6.59968 14.1739 6.88453 13.9659 7.20459L13.9435 6.79172L12.5833 7.28781C12.7081 7.38383 12.8105 7.57586 12.8265 7.88952L13.0441 12.0439C13.0633 12.4184 12.9993 12.8504 12.8873 13.0841C12.8873 13.0841 14.2508 12.588 14.43 12.524C14.2604 12.2679 14.2124 11.9543 14.1964 11.6566L14.1419 10.6292C14.4684 10.5684 14.8141 10.4532 15.0733 10.2804ZM14.4876 7.49585C14.8429 7.43824 15.0125 7.7839 15.0349 8.21918C15.0637 8.77928 14.9549 9.32019 14.59 9.68505C14.4652 9.80988 14.2764 9.89629 14.1099 9.9443L13.9979 7.8031C14.1323 7.66228 14.302 7.52785 14.4876 7.49585Z" fill="black"/>
<path d="M14.1708 3.0502L14.2828 5.1626C14.2988 5.46985 14.3148 5.84752 14.158 6.2636C14.2828 6.21879 15.4382 5.79632 15.6175 5.7323C15.4446 5.51466 15.3998 5.1882 15.3838 4.86494C15.3774 4.75612 15.355 4.26003 15.3294 3.70633C15.2974 3.08541 15.499 2.83896 15.6847 2.70134C15.8607 2.56691 16.1456 2.62452 16.2064 2.86777C16.2448 3.0182 16.1968 3.21984 16.0303 3.33826C16.5776 3.48548 17.1441 3.10141 17.0897 2.39088C17.0417 1.75076 16.488 1.49151 16.0399 1.62914C15.6943 1.73476 15.3838 2.04522 15.275 2.4837C15.259 2.17324 15.2494 1.9652 15.2494 1.9652L13.9211 2.45169C14.0428 2.54771 14.1548 2.73655 14.1708 3.0502Z" fill="black"/>
<path d="M8.91863 3.10133C8.94103 3.4566 9.10426 6.6796 9.11386 6.82683C9.13307 7.14368 9.19068 7.58857 8.90582 8.13267C9.16507 8.04305 10.9638 7.41253 11.4311 7.2205C12.7369 6.6892 13.7579 5.41536 13.6651 3.4886C13.5659 1.46903 12.1832 0.848113 10.6565 1.35381C10.2469 1.48823 8.80981 2.02593 8.48975 2.13155C8.72339 2.28198 8.88662 2.55083 8.91863 3.10133ZM11.2775 2.17956C11.9304 2.33319 12.1704 3.12054 12.1992 3.89188C12.2312 4.76884 11.9432 5.82504 11.2615 6.32753C11.0566 6.47796 10.7686 6.60919 10.5605 6.6732C10.5509 6.51637 10.3525 2.75567 10.3333 2.41961C10.5765 2.26918 10.9478 2.10275 11.2775 2.17956Z" fill="black"/>
<path d="M22.2202 7.82524C22.1562 7.92766 22.0762 7.99808 21.9706 8.03328C21.8618 8.07169 21.7657 8.06849 21.6793 8.01728C21.5929 7.96607 21.5417 7.88605 21.5193 7.77403C21.5001 7.65881 21.5225 7.54679 21.5897 7.44117C21.6537 7.34195 21.7337 7.27474 21.833 7.23953C21.9386 7.20113 22.0346 7.20753 22.121 7.25874C22.2074 7.30995 22.2618 7.38996 22.281 7.49878C22.3066 7.6108 22.2842 7.71962 22.2202 7.82524ZM21.6409 7.48918C21.5929 7.5756 21.5737 7.66201 21.5897 7.75163C21.6057 7.84445 21.6473 7.91166 21.7209 7.95007C21.7946 7.99167 21.8714 7.99808 21.9578 7.96607C22.0442 7.93406 22.1114 7.87645 22.1626 7.79004C22.2138 7.70362 22.2298 7.614 22.2138 7.52439C22.201 7.43477 22.1562 7.37076 22.0826 7.32915C22.009 7.28434 21.929 7.28114 21.8426 7.30995C21.7626 7.34195 21.6921 7.39956 21.6409 7.48918ZM21.7754 7.91806L21.7017 7.47638C21.7273 7.46678 21.769 7.45077 21.8202 7.43477C21.8714 7.41557 21.9002 7.40596 21.9066 7.40276C21.9418 7.39316 21.9706 7.38996 21.993 7.39636C22.0346 7.40597 22.0602 7.43157 22.0666 7.47958C22.073 7.51799 22.0666 7.54679 22.0506 7.5724C22.0346 7.598 22.0122 7.614 21.9834 7.62681C22.0122 7.62361 22.0346 7.62361 22.0506 7.63001C22.0794 7.63961 22.0986 7.66841 22.105 7.71322L22.1114 7.75163C22.1114 7.75483 22.1146 7.76123 22.1146 7.76443C22.1146 7.76763 22.1178 7.77403 22.1178 7.77723L22.121 7.79004L22.0154 7.82844C22.009 7.81564 22.0026 7.79644 21.9994 7.77083C21.993 7.74523 21.9898 7.72602 21.9834 7.71962C21.9738 7.70682 21.961 7.69722 21.945 7.69722C21.9354 7.69722 21.9226 7.69722 21.9066 7.70362L21.881 7.71002L21.8554 7.71962L21.8842 7.87645L21.7754 7.91806ZM21.9162 7.48918C21.9002 7.48918 21.8778 7.49238 21.849 7.50198L21.8234 7.51159L21.8458 7.63961L21.8906 7.62361C21.9162 7.614 21.9354 7.6012 21.9482 7.5852C21.961 7.5692 21.9642 7.54999 21.961 7.52439C21.9546 7.50198 21.9386 7.49238 21.9162 7.48918Z" fill="black"/>
<path d="M24.339 3.93993C23.7309 2.39405 22.585 1.17782 20.6935 0.43208C20.1942 0.230443 19.4453 0.032006 18.978 0C21.1 0.694529 22.7035 1.94916 23.3788 3.67108C24.9407 7.63982 21.0072 12.5815 14.5868 14.7067C11.3606 15.7757 8.12156 15.9326 5.49707 15.318C5.77232 15.5133 6.43485 15.6669 6.93414 15.7629C9.46901 16.2526 12.5096 15.9806 15.5469 14.9756C21.9641 12.8504 25.9009 7.90547 24.339 3.93993Z" fill="black"/>
</svg>
