<svg width="29" height="16" viewBox="0 0 29 16" fill="none" xmlns="http://www.w3.org/2000/svg">
<g clip-path="url(#clip0_15_121)">
<path fill-rule="evenodd" clip-rule="evenodd" d="M28.5368 15.031C28.3372 15.031 28.1731 15.2068 28.1731 15.4216C28.1731 15.6365 28.3376 15.8114 28.5368 15.8114C28.7359 15.8114 28.8976 15.6377 28.8976 15.4216C28.8976 15.2056 28.7363 15.031 28.5368 15.031ZM29 15.4216C28.9982 15.5129 28.9694 15.6015 28.9174 15.6765C28.8654 15.7514 28.7924 15.8094 28.7076 15.843C28.6228 15.8766 28.53 15.8844 28.4407 15.8655C28.3515 15.8466 28.2698 15.8017 28.206 15.7365C28.1422 15.6714 28.099 15.5888 28.0818 15.4992C28.0647 15.4095 28.0744 15.3168 28.1098 15.2327C28.1451 15.1486 28.2044 15.0767 28.2804 15.0262C28.3564 14.9757 28.4456 14.9487 28.5368 14.9487C28.5983 14.9493 28.659 14.9619 28.7156 14.986C28.7722 15.0101 28.8235 15.0451 28.8665 15.089C28.9095 15.1329 28.9435 15.1849 28.9664 15.242C28.9893 15.2991 29.0008 15.3601 29 15.4216Z" fill="black"/>
<path fill-rule="evenodd" clip-rule="evenodd" d="M28.582 15.4003L28.4413 15.4031V15.2492H28.5441L28.5853 15.2513L28.6223 15.2603L28.6367 15.2698L28.649 15.2809L28.6564 15.2994L28.6593 15.3344L28.6531 15.3562L28.6449 15.3723L28.6235 15.3891L28.6153 15.3933L28.6058 15.3961L28.582 15.4003ZM28.6067 15.4682L28.6355 15.4641C28.7967 15.434 28.7852 15.1525 28.5532 15.1759H28.3549V15.6991H28.44V15.4752H28.5223L28.6581 15.6995H28.7556L28.6067 15.4682Z" fill="black"/>
<path fill-rule="evenodd" clip-rule="evenodd" d="M5.90649 9.16772L8.53594 15.8229H9.44767L12.0895 9.16772H10.9321L9.05269 14.0408L7.29466 9.16772H5.90649Z" fill="black"/>
<path fill-rule="evenodd" clip-rule="evenodd" d="M4.58703 11.8238H1.32769C1.45934 10.7562 2.06332 10.1462 3.02936 10.1462C3.92134 10.1454 4.51914 10.8204 4.58703 11.8238ZM1.28531 12.7704L5.90031 12.7663L5.90237 12.7527C5.90237 10.394 4.63969 9.15967 3.03224 9.15967C1.23841 9.16131 -0.002875 10.5701 5.00108e-06 12.5037C5.00108e-06 14.4739 0.953698 16.0001 3.12193 16.0001C4.22333 16.0001 4.96719 15.6617 5.74932 15.1506V13.9257C5.03014 14.4875 4.1217 15.0024 3.34081 15.0024C2.09829 15.0024 1.28531 14.1953 1.28531 12.7721V12.7704Z" fill="black"/>
<path fill-rule="evenodd" clip-rule="evenodd" d="M13.9771 15.8301L13.9783 9.17285H12.8181L12.8127 15.8301H13.9771Z" fill="black"/>
<path fill-rule="evenodd" clip-rule="evenodd" d="M13.9771 8.53804L13.9783 7.3811H12.8181L12.8127 8.53804H13.9771Z" fill="black"/>
<path fill-rule="evenodd" clip-rule="evenodd" d="M27.386 15.83V11.834C27.386 11.0109 27.1638 10.3009 26.7396 9.7967C26.3154 9.29252 25.6872 8.99701 24.9042 8.99701C24.58 8.99294 24.2584 9.05587 23.9595 9.18186C23.6607 9.30785 23.3911 9.49418 23.1676 9.7292V9.16123H22.0115V15.832H23.2046V11.771C23.2075 10.84 23.858 10.1511 24.759 10.1482C25.7053 10.1544 26.199 10.8248 26.2048 11.7945V15.8279H26.2027L27.386 15.83Z" fill="black"/>
<path fill-rule="evenodd" clip-rule="evenodd" d="M16.2626 14.2322C16.2194 14.148 16.1915 14.0567 16.1803 13.9627V13.9557L16.1775 13.9433L16.1713 13.8404C16.1803 13.3354 16.421 12.886 17.7701 12.7884C18.4082 12.7419 19.0546 12.6744 19.5034 12.3999L19.5652 12.3588L19.5841 12.3472V13.1975C19.5812 13.3293 19.5642 13.4604 19.5335 13.5885C19.5191 13.642 19.5006 13.6943 19.482 13.7445L19.4771 13.7622C19.3987 13.9578 19.2767 14.133 19.1204 14.2742L19.0895 14.3051L19.0599 14.3277C18.6785 14.6385 18.1309 14.7805 17.5553 14.7805C16.9509 14.7801 16.4548 14.6055 16.2626 14.2322ZM20.906 15.6728C20.8196 15.4443 20.7365 14.992 20.7303 14.6763V11.0495C20.7303 10.426 20.5094 9.89712 20.072 9.53287C19.6347 9.16863 18.9871 8.96202 18.1404 8.96202H18.1342L18.1313 8.95996C16.7769 8.96202 15.8059 9.57156 15.4821 10.5618L15.4706 10.603L15.4521 10.6544H16.7535L16.7753 10.6256C17.0711 10.2083 17.6454 10.086 18.1223 10.086H18.1264C19.1714 10.093 19.5845 10.463 19.5857 10.9281V10.931C19.5824 11.1586 19.4796 11.3302 19.1809 11.4702C18.8822 11.6101 18.3844 11.7023 17.6269 11.7385C16.0075 11.8208 15.0127 12.4551 15.0127 13.831V13.8392V13.8454C15.0168 15.2953 16.2202 15.9205 17.5204 15.9205H17.5269C18.423 15.9205 19.1237 15.6411 19.5923 15.1484L19.6121 15.1278L19.6149 15.1546C19.6346 15.3519 19.6841 15.5451 19.7618 15.7275L19.7701 15.744L19.7803 15.7674H20.9467L20.906 15.6728Z" fill="black"/>
<path fill-rule="evenodd" clip-rule="evenodd" d="M16.5789 5.20437L15.9408 4.46107L15.9099 3.68731L14.816 2.08051L14.5724 1.30675L13.6598 0.414045V0L12.7226 0.529698L12.1096 1.54505L11.5007 1.5146L10.8629 2.31882L9.92159 3.34158L9.56653 3.84041L11.1962 3.65685L13.0085 4.26804L13.6302 5.44185L15.0389 6.3609L16.8998 6.34732L18.1909 6.69386L16.6086 5.68139L16.5789 5.20437Z" fill="black"/>
<path fill-rule="evenodd" clip-rule="evenodd" d="M9.6587 5.67325L8.90702 4.23026L9.11767 3.78494L8.89344 3.12847L9.072 2.55309L9.02181 1.35376L7.52091 2.43209L6.87785 3.4709L6.15661 3.66393L5.08114 4.52536L3.87771 6.05642L2.90344 6.80302L4.38747 6.86928L6.04923 6.10128L7.09385 6.71906L8.95022 6.68325L9.5542 6.98452L10.0693 6.74622L9.74839 6.58653L9.6587 5.67325Z" fill="black"/>
<path fill-rule="evenodd" clip-rule="evenodd" d="M22.2658 5.99212L21.8955 4.21247L20.9994 2.88102L20.6291 1.91382L19.7351 2.43035L18.9715 3.20534L17.6759 3.39096L16.7098 3.8795L17.0896 4.41167L18.6555 5.2982L19.705 6.29257L20.6299 6.38476L22.1111 7.19968H24.1464C24.1464 7.19968 23.1244 6.36172 23.0668 6.32303C23.0092 6.28434 22.2658 5.99212 22.2658 5.99212Z" fill="black"/>
</g>
<defs>
<clipPath id="clip0_15_121">
<rect width="29" height="16" fill="white"/>
</clipPath>
</defs>
</svg>
