<svg width="41" height="16" viewBox="0 0 41 16" fill="none" xmlns="http://www.w3.org/2000/svg">
<path d="M34.282 0L26.2852 0.839548L26.6584 3.93732L28.5026 3.75076L29.688 13.631L33.254 13.2501L32.0647 3.37374L34.659 3.09195L34.282 0ZM25.094 0.279849L21.8487 0.627718L22.5929 6.71638L22.2859 6.75137L19.2194 3.49812L15.8166 3.87708L17.1905 14.935L20.4398 14.591L19.7538 8.99793L20.0647 8.96684L23.5665 13.3142L26.6584 12.9994L25.094 0.279849ZM7.31268 1.77627L0 2.52836L1.59352 15.5938L4.84662 15.2498L4.21893 9.9055L7.37487 9.59067L7.06005 7.12255L3.908 7.4335L3.6612 5.31519L7.68969 4.8721L7.31268 1.77627ZM12.2487 3.43593L9.22102 3.75076L6.93762 16L9.75154 15.6891L10.1907 12.498L12.6257 12.2181L13.2845 14.3773L16.0051 14.0916L12.2487 3.43593ZM38.0034 3.84404L34.4413 4.21912L34.4996 12.156L36.6858 11.9402L36.5984 10.2806L38.153 10.0921L38.7516 11.7167L41 11.468L38.0034 3.84404ZM36.785 6.1528L37.4729 8.28276L36.5595 8.40909L36.4701 6.18195L36.785 6.1528ZM11.2187 7.62395L11.8775 9.78112L10.56 9.9366L10.9059 7.6531L11.2187 7.62395Z" fill="black"/>
</svg>
