<svg width="99" height="16" viewBox="0 0 99 16" fill="none" xmlns="http://www.w3.org/2000/svg">
<path d="M8.05229 0C10.8317 0 13.2823 1.39911 14.7294 3.52711L15.3334 4.63278H12.5755L12.0665 4.02133C11.0392 3.00309 9.61992 2.37328 8.05229 2.37328C4.91702 2.37328 2.37537 4.89244 2.37537 8C2.37537 11.1076 4.91702 13.6267 8.05229 13.6267C10.4038 13.6267 12.4213 12.2097 13.2831 10.1902L13.5973 9.18703H4.8114V6.90991H16.0212L16.063 7.18207C16.0905 7.45098 16.1046 7.72387 16.1046 8C16.1046 12.4183 12.4995 16 8.05229 16C3.60512 16 0 12.4183 0 8C0 3.5817 3.60512 0 8.05229 0Z" fill="black"/>
<path d="M22.8235 3.46973L20.8252 7.91852H24.8218L22.8235 3.46973ZM21.8434 0.156738H23.8036L30.8497 15.843H28.3814L25.8439 10.1939H19.8031L17.2657 15.843H14.7974L18.3543 7.92432V7.91852H18.3569L21.8434 0.156738Z" fill="black"/>
<path d="M34.2985 2.43214V7.91852H39.5333C39.8606 7.88652 40.0878 7.83459 40.3951 7.70283C41.3834 7.28641 42.0769 6.31156 42.0769 5.17535C42.0769 4.03914 41.3834 3.06424 40.3951 2.64782C40.0679 2.50947 39.8206 2.41096 39.4133 2.41222L34.2985 2.43214ZM32 0.156738H39.8934V0.214046L40.3379 0.258699C42.6321 0.726673 44.358 2.7501 44.358 5.17535C44.358 6.99423 43.3872 8.58717 41.9339 9.46738L41.6075 9.6289H41.6421L45.281 15.843H42.2443L38.9363 10.1939H34.2985V15.843H32.0176V10.1939H32V7.91852H32.0176V2.43214H32V0.156738Z" fill="black"/>
<path d="M64.8368 0.156738H62.5361V15.843H64.8368V0.156738Z" fill="black"/>
<path d="M46.5884 0.192502H47.5401H48.5046L48.8722 0.654861L57.4287 11.4157V15.2191L48.8722 4.45836V15.843H46.5884V1.58619V0.192502ZM57.4288 0.156738H59.7126V14.2878V15.843H57.9248L57.4287 15.2191L57.4288 11.4156V0.156738Z" fill="black"/>
<path d="M87.3181 2.43214V7.91852H92.5531C92.8799 7.88652 93.1074 7.83459 93.4148 7.70283C94.4031 7.28641 95.0964 6.31156 95.0964 5.17535C95.0964 4.03914 94.4031 3.06424 93.4148 2.64782C93.0875 2.50947 92.8402 2.41096 92.4329 2.41222L87.3181 2.43214ZM85.0195 0.156738H92.9129V0.214046L93.3573 0.258699C95.6517 0.726673 97.3777 2.7501 97.3777 5.17535C97.3777 6.99423 96.4067 8.58717 94.9536 9.46738L94.6269 9.6289H94.6619L98.3006 15.843H95.2637L91.956 10.1939H87.3181V15.843H85.0373V10.1939H85.0195V7.91852H85.0373V2.43214H85.0195V0.156738Z" fill="black"/>
<path d="M74.876 16C77.6555 16 80.106 14.6009 81.5531 12.4729L82.1572 11.3672H79.3992L78.8902 11.9787C77.8629 12.9969 76.4437 13.6267 74.876 13.6267C71.7407 13.6267 69.1991 11.1075 69.1991 8C69.1991 4.89244 71.7407 2.37328 74.876 2.37328C77.2275 2.37328 79.245 3.79033 80.1068 5.80983L80.421 6.81297H71.6351V9.09009H82.8449L82.8867 8.81794C82.9142 8.54902 82.9283 8.27613 82.9283 8C82.9283 3.5817 79.3232 0 74.876 0C70.4289 0 66.8237 3.5817 66.8237 8C66.8237 12.4183 70.4289 16 74.876 16Z" fill="black"/>
</svg>
