<svg width="88" height="16" viewBox="0 0 88 16" fill="none" xmlns="http://www.w3.org/2000/svg">
<g clip-path="url(#clip0_15_210)">
<path d="M47.8752 14.9235H59.2311V13.5296H49.822V9.06947H56.8894V7.65913H49.822V3.54992H59.2311V2.16113H47.8752V14.9235Z" fill="black"/>
<path d="M53.7766 0.0981445L52.2391 1.8338L57.0656 0.0981445H53.7766Z" fill="black"/>
<path d="M78.295 13.5296V2.16113H76.5201V14.9235H88V13.5296H78.295Z" fill="black"/>
<path d="M66.5895 2.16113L60.1317 14.9235H62.3146L63.9666 11.6202H71.7117L73.3779 14.9235H75.5382L69.0753 2.16113H66.5895ZM64.7841 10.0205L67.8271 3.92464L70.9058 10.0205H64.7841Z" fill="black"/>
<path d="M41.7131 9.58689C44.6227 8.80672 44.9054 6.63125 44.8907 5.85351C44.717 3.57357 43.1883 2.16113 40.4415 2.16113H32.4368V14.9235H34.2616V9.56987H39.4728L43.3067 14.9235H45.6067C45.6067 14.9235 42.8476 11.3204 41.7131 9.58689ZM40.1923 8.06193H34.2616V3.67173H40.399C41.8121 3.67173 42.607 4.33462 42.8933 5.17669C43.0827 5.75391 42.9613 6.51165 42.6479 7.02752C42.1349 7.88042 41.1606 8.06193 40.1923 8.06193Z" fill="black"/>
<path d="M21.4707 0C16.3196 0 12.8087 3.6496 12.8087 8.06687C12.8087 12.7172 16.687 16 21.4707 16C26.2512 16 30.1279 12.764 30.1279 8.06687C30.1279 3.6496 26.5736 0 21.4707 0ZM21.4089 14.4158C17.8451 14.4158 14.9087 11.538 14.9087 8.07119C14.9087 4.60917 17.7065 1.5935 21.547 1.5935C25.2924 1.5935 28.0456 4.60917 28.0456 8.07119C28.0456 11.5378 24.9711 14.4158 21.4089 14.4158Z" fill="black"/>
<path d="M8.21294 6.67601H9.52964L11.9196 2.16113H9.99637L8.21294 6.67601Z" fill="black"/>
<path d="M1.77595 13.5296V2.16113H0V14.9235H11.4795V13.5296H1.77595Z" fill="black"/>
</g>
<defs>
<clipPath id="clip0_15_210">
<rect width="88" height="16" fill="white"/>
</clipPath>
</defs>
</svg>
