<svg width="65" height="16" viewBox="0 0 65 16" fill="none" xmlns="http://www.w3.org/2000/svg">
<path d="M12.9331 0.822147H9.38797V8.30034C6.28172 5.53188 3.18222 2.76342 0 0V15.1779H3.54518V7.69966C6.50287 10.3087 9.67834 13.2366 12.9348 16L12.9331 0.822147ZM20.795 15.1728H17.2498V0.822147H20.795V15.1728ZM29.9838 15.995C27.4718 11.297 24.9564 5.89933 22.4444 0.817113H26.4352L29.9804 8.59228L33.3939 0.817113H37.3037C34.8694 5.91275 32.4283 11.2903 29.9888 16L29.9838 15.995ZM48.5149 3.95805H42.5151V6.43456H48.5217V9.56544H42.5151V12.0268H48.5217V15.1577H38.9666V0.812079H48.5217L48.5149 3.95805ZM57.5231 0C55.0836 4.78524 52.6442 9.94463 50.2048 15.1779H53.9087L54.6464 13.4581H60.4217L61.1628 15.1779H65C62.4711 9.94463 59.9591 4.71141 57.5231 0ZM55.6846 10.7651L57.5231 6.5906L59.299 10.7651H55.6846Z" fill="black"/>
</svg>
