<svg width="37" height="16" viewBox="0 0 37 16" fill="none" xmlns="http://www.w3.org/2000/svg">
<path d="M36.8493 0.000638788V2.81769H33.7352V6.30169H36.1833V9.18269H33.7352V13.118H37V15.9997H30.8796V0.000383236L36.8493 0.000638788ZM20.5935 0.000638788H24.1152L25.2111 8.08624L26.3063 0.000638788H29.592V16H27.0147V6.53849L25.5973 16H24.5236L23.0847 6.53849V16H20.5935L20.5935 0.000638788ZM16.4491 15.9994V0H19.3055V15.9994H16.4491ZM10.9951 6.51613H11.5535C12.1119 6.51613 12.348 6.30126 12.348 5.54813V3.37643C12.348 2.68873 12.2195 2.47308 11.6396 2.47308H10.9951L10.9951 6.51613ZM10.9951 15.9994H8.13874V0H12.6487C14.3884 0 15.269 0.967997 15.269 2.66688V5.22593C15.269 6.51587 14.5384 7.16123 14.0016 7.37611C14.4746 7.5486 15.226 8.06381 15.226 9.26829V14.7091C15.226 15.3968 15.3544 15.6979 15.4621 15.8912V15.999H12.6057C12.4772 15.8265 12.348 15.483 12.348 14.773V10.1069C12.348 9.37609 12.1765 9.16121 11.5966 9.16121H10.9952L10.9951 15.9994ZM2.85641 6.98946H3.39324C4.03774 6.98946 4.12386 6.58054 4.12386 6.08611V3.41923C4.12386 2.86013 4.03773 2.47352 3.39324 2.47352H2.85641V6.98946ZM2.85641 9.59093V15.9991H0V0.00102202H4.05929C6.48579 0.00102202 7.00111 1.20549 7.00111 3.16231V6.36602C7.00111 8.3229 6.20663 9.59125 4.20927 9.59125L2.85641 9.59093Z" fill="black"/>
</svg>
