<svg width="128" height="16" viewBox="0 0 128 16" fill="none" xmlns="http://www.w3.org/2000/svg">
<path fill-rule="evenodd" clip-rule="evenodd" d="M0 14.1894L0.659368 13.094H0.869723C0.967634 12.7849 1.17875 12.5738 1.51532 12.4621L1.47325 12.9953C1.71191 12.9402 1.95057 12.7146 2.17469 12.4354L2.67954 12.3367L2.39881 12.8133L2.41335 13.276L1.55739 13.6975L1.14969 14.0624L0.700674 14.1741L0 14.1894ZM1.13745 12.1393C1.36157 11.3538 1.75475 10.6378 2.44242 10.0343L2.48449 9.69846L2.89143 9.59979L4.18263 8.64515L4.19716 9.03833L3.71985 9.64186L3.08802 9.95089L3.05971 10.2737L3.24177 10.2875L3.78945 9.96465C3.80322 10.0496 3.84606 10.2033 3.81776 10.2454L3.32667 10.8351C3.2846 10.8772 2.21829 11.0876 2.21829 11.0876L2.16169 11.4387L2.45618 11.2696L2.639 11.2979L2.13338 11.9282L1.6423 11.8165L1.13745 12.1393ZM4.07018 9.75354L4.43505 9.23492L4.61711 9.24868V9.44527L4.43505 9.73977L4.07018 9.75354ZM4.04265 14.4548L5.93661 14.5122L5.15103 13.5285L5.5159 12.7582L5.48759 12.5471H5.2214L4.79992 13.3747L4.04265 14.4548ZM2.27337 14.3561H3.45289L3.73361 13.6554L4.16886 13.3043L4.44959 13.1927L5.06688 12.2243L5.48759 12.069C5.09442 11.5221 5.15103 10.9323 5.47383 10.3854C5.31931 10.3991 4.94067 10.7915 4.842 10.9468L4.78539 11.2413L4.56127 11.3951L4.51843 11.6758L4.36392 11.7745L4.05565 12.7574L3.33968 13.3173L3.31137 12.9525L3.67624 12.7L3.73285 12.3352L3.03141 13.0358L2.83482 13.1345L2.6107 13.7097L2.51279 13.865L2.34374 13.8497L2.27337 14.3561ZM5.03858 9.31829L5.48759 8.99626L5.54343 8.77213L6.38562 8.20991H6.07735L5.82493 8.32236L5.88077 7.84581L6.30148 7.71883L6.83463 7.26982L6.82086 8.18161L6.63881 8.58932L6.82086 8.78513L7.66305 8.80044L7.57891 8.98249L6.77879 8.92589L6.44222 8.75684L5.65588 9.31829H5.03858ZM8.05622 4.08389L8.39279 3.67695L8.82727 4.15427L8.05622 4.08389ZM7.31195 3.64865L7.90094 3.17133L8.09753 3.39622L7.56514 3.69148L7.31195 3.64865ZM7.55061 4.60328L7.35402 4.58874L7.21404 4.79986L7.45269 5.1502L7.73342 5.16474L7.83133 4.96815L7.57891 4.93985L7.55061 4.60328ZM6.93331 1.65601L6.24564 2.84853L6.18903 3.5645L6.03528 3.91484L6.65258 3.71902L7.48023 3.11549L8.28035 2.79269L7.83133 2.60987L7.43816 2.9189L7.01745 2.90514L6.75126 3.08719L6.73672 2.83476L7.01745 2.76516L7.80303 2.34368V2.14709L7.41062 2.09125L7.38232 2.25954L6.97538 2.17539L7.32572 2.04918L7.31195 1.88014L6.93331 1.65601Z" fill="black"/>
<path fill-rule="evenodd" clip-rule="evenodd" d="M4.23846 8.13949L4.50542 7.45182L4.37921 7.31183L4.74408 6.58209L4.79992 6.44135L4.9399 5.7116L5.12272 5.16468L5.58627 4.78528H5.79586L5.82492 4.53285L6.38562 4.11138H6.62504L6.70842 3.90102L6.8767 3.87348V4.07007L6.59597 4.29419L6.56767 4.46248L6.04905 4.7149L5.89453 5.13638L5.74002 5.22052L5.78209 5.37503L5.99244 5.33297L6.44222 5.0377L6.52636 4.70113L6.77879 4.53285L6.82086 4.3921L7.38232 4.0976L7.42439 3.92932L7.81756 3.78857L7.71889 4.29419L7.2278 4.33627L6.91877 4.72944L7.10159 5.13638L7.07329 5.79575L6.46976 6.13308L6.27394 5.92196L6.44222 5.79575L6.35731 5.55709L6.18903 5.59993L5.9366 5.87989L5.69795 6.32966L5.40345 6.52625L5.13649 6.68L5.2627 6.83452L5.75379 6.51172L6.21733 6.42758L6.20356 6.70831L5.83869 6.87659L5.82492 7.12902L5.62834 7.18562L5.43175 7.52219L5.19233 7.70501L5.10895 7.43805L4.85576 7.46635L4.71578 7.69124L4.75785 7.80292L4.23846 8.13949Z" fill="black"/>
<path fill-rule="evenodd" clip-rule="evenodd" d="M7.39611 1.10913L8.82729 1.43193L10.0206 2.52654L11.3401 3.78944L12.8141 6.59672L12.7858 7.71887L13.2065 7.99961L13.6693 8.40578L13.7672 8.68651L14.5665 9.20666L14.6507 9.85226L15.6329 10.2454L16.1522 10.302C16.9386 10.6952 17.4717 11.4655 17.7387 12.5892H17.3593L16.433 11.9856L15.8011 11.4938L16.3488 12.9533L16.7558 13.221L17.9353 14.6522L16.8682 14.7493L15.4363 13.6272L15.4646 13.3044L14.861 12.9533L14.9727 13.6838L14.5382 13.5568L13.9906 12.8125L13.387 12.04L13.4995 11.8296L13.0642 11.438L12.756 10.5384L12.489 11.493L12.8393 11.8862L12.7835 12.518L13.4995 13.683L12.7835 13.4727L13.2746 14.5665L11.3944 14.6231L11.0578 13.9913L10.7909 13.8505L10.3839 13.4444L10.4956 14.3424L8.02565 14.5397L7.5338 14.7218L6.38335 14.4541L6.21506 14.0196L6.06055 13.1353L7.18346 12.0973L7.85736 11.0876L7.53456 11.1144L8.46089 10.3984C8.89537 9.82319 9.12026 9.26326 9.12026 8.68651L9.72379 8.63143L10.2432 8.26656L10.9308 8.32164L10.5377 7.80225L9.55474 7.53606L9.41399 6.6518L9.03535 6.3007L9.63888 5.12195L9.40022 4.88328L9.75132 4.7433L9.91961 4.28052L9.09119 4.25222L8.92291 3.04516L8.71561 2.93272L8.25283 2.00639L8.02871 1.90848C7.63477 1.81057 7.43818 1.4457 7.39611 1.10913ZM10.54 11.34L11.031 12.5609L11.578 12.7016L11.76 12.8707L11.7883 12.6733L11.5076 12.2801L11.1986 12.1815L10.8337 11.4525L10.54 11.34ZM7.98587 11.887C8.15415 12.0973 8.25283 12.2947 8.15415 12.4622C7.98587 12.6175 7.90173 12.8286 7.9155 13.094C8.25207 13.4168 8.61694 13.6555 9.01011 13.81C8.9796 13.4289 8.88952 13.0549 8.74315 12.7016C8.93974 12.5043 9.13632 12.3084 9.23423 11.9443C9.12179 11.2421 8.84106 10.9897 8.47619 10.9897C8.30867 11.1014 8.15415 11.3951 7.98587 11.887ZM9.61364 6.20278L10.1047 6.86292L10.4979 6.65257L10.9048 6.73671L10.8765 6.52635L10.4696 6.17525L9.61364 6.20278Z" fill="black"/>
<path fill-rule="evenodd" clip-rule="evenodd" d="M35.1698 2.24512C38.2992 2.24512 40.8533 4.85582 40.8533 8.05628C40.8533 11.2414 38.2992 13.8514 35.1698 13.8514C32.0405 13.8514 29.4857 11.2414 29.4857 8.05628C29.4864 4.85582 32.0405 2.24512 35.1698 2.24512ZM35.1981 4.95373C33.6262 4.95373 32.3488 6.30077 32.3488 7.9576C32.3488 9.59914 33.6262 10.9469 35.1981 10.9469C36.7555 10.9469 38.033 9.59914 38.033 7.9576C38.033 6.30153 36.7555 4.95373 35.1981 4.95373Z" fill="black"/>
<path fill-rule="evenodd" clip-rule="evenodd" d="M97.6928 2.24512C100.823 2.24512 103.378 4.85582 103.378 8.05628C103.378 11.2414 100.823 13.8514 97.6928 13.8514C94.5627 13.8514 92.0094 11.2414 92.0094 8.05628C92.0094 4.85582 94.5627 2.24512 97.6928 2.24512ZM97.7211 4.95373C96.1492 4.95373 94.8718 6.30077 94.8718 7.9576C94.8718 9.59914 96.1492 10.9469 97.7211 10.9469C99.2793 10.9469 100.57 9.59914 100.57 7.9576C100.57 6.30153 99.2793 4.95373 97.7211 4.95373Z" fill="black"/>
<path fill-rule="evenodd" clip-rule="evenodd" d="M122.871 8.44938H126.296V6.55388H122.871V4.33636H126.296C126.73 4.33636 127.137 4.49087 127.587 4.65916V2.41333H119.854C120.023 2.7499 120.177 3.0727 120.177 3.4238V12.5731C120.177 12.9242 120.023 13.247 119.854 13.5843H127.811V10.2569C127.319 10.4826 126.814 10.6501 126.296 10.6501H122.872V8.44938H122.871Z" fill="black"/>
<path fill-rule="evenodd" clip-rule="evenodd" d="M71.4205 8.44938H74.8451V6.55388H71.4205V4.33636H74.8451C75.2796 4.33636 75.6881 4.49087 76.1363 4.65916V2.41333H68.4029C68.5719 2.7499 68.7257 3.0727 68.7257 3.4238V12.5731C68.7257 12.9242 68.5719 13.247 68.4029 13.5843H76.3612V10.2569C75.8694 10.4826 75.3645 10.6501 74.8451 10.6501H71.4205V8.44938Z" fill="black"/>
<path fill-rule="evenodd" clip-rule="evenodd" d="M18.6658 0H28.1952V2.51202H25.2763V14.666C25.2763 15.1991 25.4591 15.6627 25.7681 16H21.5151C21.8379 15.6489 21.9641 15.1991 21.9641 14.666V2.51202H18.6658V0Z" fill="black"/>
<path fill-rule="evenodd" clip-rule="evenodd" d="M106.338 2.25952C106.577 2.70853 106.744 3.21415 106.744 3.69147V12.2801C106.744 12.8002 106.633 13.1926 106.393 13.5996H109.635C109.424 13.2638 109.312 12.814 109.312 12.2801V7.14359L113.004 13.5988H115.923V3.69147C115.923 3.21415 116.09 2.70853 116.357 2.25952H113.003C113.185 2.73684 113.339 3.19962 113.339 3.69147V8.80042L109.633 2.25952H106.338Z" fill="black"/>
<path fill-rule="evenodd" clip-rule="evenodd" d="M57.1898 2.44165H60.6282C60.4461 2.84859 60.3337 3.28384 60.3337 3.69078V10.6379H64.1369C64.4872 10.6379 64.8666 10.5545 65.1053 10.2585V13.5989H57.2602C57.4285 13.2057 57.5126 12.7429 57.5126 12.2794V3.69154C57.5126 3.228 57.3719 2.83482 57.1898 2.44165Z" fill="black"/>
<path fill-rule="evenodd" clip-rule="evenodd" d="M85.1877 2.3291H79.8692C80.0666 2.62436 80.2203 2.96093 80.2203 3.29826V12.5738L79.8692 13.585H83.3083C83.0559 13.3043 82.8723 12.9532 82.8723 12.5738V8.5189C85.1877 8.5189 86.4935 10.8611 86.7329 12.5738C86.788 12.9815 86.8033 13.1926 86.6625 13.585H90.6906C90.4415 13.2815 90.2424 12.9401 90.1009 12.5738C89.1478 10.2316 88.1082 8.54567 87.0144 7.95744C90.0863 6.24477 89.3994 2.3291 85.1877 2.3291ZM82.8019 4.25213H85.1174C86.5922 4.25213 86.5922 6.75038 85.1174 6.75038H82.8019V4.25213Z" fill="black"/>
<path fill-rule="evenodd" clip-rule="evenodd" d="M43.8296 2.38574C44.1241 2.9755 44.209 3.71901 44.209 4.30877V12.3222C44.209 12.9119 44.0965 13.0664 43.8296 13.5713H50.6505C54.482 13.5713 55.3379 8.18237 52.3486 7.28434C53.9901 5.72695 53.766 2.38651 49.6255 2.38651L43.8296 2.38574ZM46.7769 8.39273H49.9345C51.5622 8.39273 51.5622 11.2283 49.9345 11.2283H46.7769V8.39273ZM46.7769 4.30877H49.4151C51.0146 4.30877 51.0146 6.73666 49.4151 6.73666H46.7769V4.30877Z" fill="black"/>
</svg>
