<svg width="66" height="16" viewBox="0 0 66 16" fill="none" xmlns="http://www.w3.org/2000/svg">
<path d="M7.24685 7.16281L6.45789 10.4489H9.16063C8.89903 12.2122 4.51786 12.9723 5.18629 8.70277C5.65632 5.71668 9.42587 4.10668 10.2592 6.41825L14.916 5.26118C14.2451 2.38726 11.6803 0.965452 8.86087 0.965452C4.98115 0.963911 0.618799 3.65495 0.0460274 8.95141C-0.434879 13.3944 2.92318 15.8382 6.82189 15.7745C9.59405 15.7272 11.7862 14.7267 12.8546 13.9749L14.477 7.16281H7.24685ZM15.7177 5.62062L13.3757 15.4647H18.2112L20.5522 5.62062H15.7177ZM22.7583 0L19.0796 15.4647H23.9166L27.5922 0H22.7583ZM21.5694 1.41736H16.726L15.8932 5.01734L21.0478 3.74485L21.5694 1.41736ZM61.155 4.96579C59.1901 4.96579 57.5369 5.85076 56.3985 7.22206C56.5792 6.50045 56.7865 5.67113 56.7885 5.67113H54.7813L55.8006 1.41941H50.9698L49.9451 5.67713L48.8518 5.67815L49.8804 1.41941H45.0477L44.0372 5.66411L42.4905 5.67267L41.7646 8.27638C41.2287 6.0131 39.0806 4.9485 37.0575 4.9485C34.1889 4.9485 31.996 6.81913 31.0832 9.34132L33.3034 0H28.4684L24.7933 15.4647H29.6272L30.6783 11.044C30.493 12.8036 31.1665 15.9789 35.519 15.9789C37.7032 15.9789 40.5006 14.5713 41.168 12.6182L37.391 11.9637C36.9671 12.5074 36.3314 12.8315 35.7148 12.8315C34.6777 12.8315 34.3833 11.9527 34.5931 11.163L41.6181 11.1548C41.6839 10.9171 41.836 10.6587 41.8897 9.8011C41.9065 9.54013 41.898 9.3004 41.8846 9.061H43.2337L41.7017 15.4724H46.5325L48.0656 9.061H49.1372L47.6192 15.4724H52.4535L53.9893 9.061H55.2985C55.2944 9.07299 55.2916 9.08018 55.2916 9.08018C55.0573 9.65281 54.8886 10.2629 54.8008 10.8972L54.8001 10.8998C54.5568 12.6194 55.1353 16 59.6242 16C61.8076 16 64.6055 14.5914 65.2737 12.6387L61.4947 11.9822C61.0723 12.5274 60.4346 12.8511 59.8195 12.8511C58.7814 12.8511 58.4858 11.9733 58.6975 11.182L58.6947 11.1794L65.7211 11.182C65.7792 10.9443 65.9311 10.6772 65.9858 9.8196C66.2162 6.49634 63.592 4.96579 61.155 4.96579ZM37.8004 9.2045L35.1277 9.18687C35.5352 7.81249 38.0119 7.50118 37.8004 9.2045ZM61.9039 9.21957L59.2304 9.21444C59.6393 7.8404 62.1139 7.51745 61.9039 9.21957Z" fill="black"/>
</svg>
